<svg width="15" height="15" viewBox="0 0 15 15" fill="none" xmlns="http://www.w3.org/2000/svg">
<g clip-path="url(#clip0_1_5)">
<path d="M10.4744 10.0156C10.0147 10.5076 9.1169 11.4687 8.39255 12.2442C7.7996 12.8788 6.79392 12.8787 6.20099 12.244C5.49 11.4829 4.60794 10.5387 4.11925 10.0156C2.36432 8.13702 2.36432 5.0913 4.11925 3.21275C5.87417 1.33419 8.71948 1.33419 10.4744 3.21275C12.2293 5.0913 12.2293 8.13702 10.4744 10.0156Z" stroke="white" stroke-width="1.2" stroke-linecap="round" stroke-linejoin="round"/>
<path d="M8.98199 6.61418C8.98199 7.61045 8.22749 8.41805 7.29682 8.41805C6.36614 8.41805 5.61166 7.61045 5.61166 6.61418C5.61166 5.61793 6.36614 4.8103 7.29682 4.8103C8.22749 4.8103 8.98199 5.61793 8.98199 6.61418Z" stroke="white" stroke-width="1.2" stroke-linecap="round" stroke-linejoin="round"/>
</g>
<defs>
<clipPath id="clip0_1_5">
<rect width="14.25" height="15" fill="white" transform="translate(0.0350037)"/>
</clipPath>
</defs>
</svg>
